<svg xmlns="http://www.w3.org/2000/svg" xmlns:xlink="http://www.w3.org/1999/xlink" version="1.1" x="0px" y="0px" viewBox="0 0 100 100" enable-background="new 0 0 100 100" xml:space="preserve"><g><polygon fill="#000000" points="72.5,73.8 72.5,60.9 70.5,60.9 70.5,73.8 26.5,73.8 26.5,42.7 33.7,42.7 33.7,40.7 24.5,40.7    24.5,73.8 18.5,73.8 18.5,75.8 78.5,75.8 78.5,73.8  "></polygon><path fill-rule="evenodd" clip-rule="evenodd" d="M69.9,29.2l2.7-1.3l1.4,2.8L71.2,32c0.3,0.9,0.4,1.8,0.4,2.7l3.1,0.5l-0.5,3   l-3.1-0.5c-0.3,0.9-0.7,1.6-1.2,2.4l2.2,2.2l-2.1,2.2l-2.2-2.2c-0.5,0.4-1,0.7-1.6,1c-0.2,0.1-0.5,0.2-0.8,0.3l0.6,3l-3,0.5   l-0.6-2.9c-0.9,0-1.8-0.1-2.7-0.3l-1.2,2.7l-2.8-1.3l1.2-2.6c-1-0.6-1.9-1.5-2.7-2.5l-2.6,1.2l-1.4-2.8l2.5-1.2   c-0.3-0.9-0.4-1.9-0.4-2.8L49.7,34l0.4-3l2.8,0.5c0.3-0.9,0.7-1.8,1.3-2.5l-2-2l2.1-2.2l2,2c0.5-0.3,0.9-0.6,1.5-0.9   c0.3-0.2,0.7-0.3,1-0.4l-0.6-2.8l3-0.6l0.6,2.8c0.9,0,1.8,0.1,2.7,0.4l1.2-2.7l2.8,1.3l-1.2,2.7C68.3,27.3,69.2,28.2,69.9,29.2    M60,30.4c-2.3,1.1-3.2,3.8-2.1,6.1c1.1,2.3,3.9,3.2,6.1,2.2c2.3-1.1,3.2-3.8,2.1-6.1C65,30.3,62.3,29.3,60,30.4"></path><polygon points="43.9,53 41,51.7 46.2,40.5 49.2,41.9  "></polygon><polygon points="39.8,51.1 36.9,49.8 39.4,44.5 42.3,45.8  "></polygon><polygon points="47.9,54.9 45,53.6 49.2,44.7 52.1,46.1  "></polygon><polygon points="35.2,50.4 41,38.1 39.9,37.5 33.5,51 46.8,57.3 47.4,56.1  "></polygon><path d="M53.8,65.2l-0.4-0.7l-7.2,3.9l-0.6-1.2l6.1-3.3l-0.5-5.1l-8.9,4.8l-2.1-0.3L39.9,65l2.4,0.6l2.5,4.5   c-0.5,0.5-0.7,1.2-0.3,1.9c0.4,0.7,1.3,1,2.1,0.6c0.7-0.4,1-1.3,0.6-2c-0.1-0.1-0.2-0.2-0.3-0.3l5.5-3c0,0.1,0.1,0.3,0.2,0.4   c0.4,0.7,1.3,1,2.1,0.6c0.7-0.4,1-1.3,0.6-2C54.8,65.5,53.8,65.2,53.8,65.2"></path><polygon points="67.5,47.3 64.5,50.2 63.7,47.7 53.7,50.7 56.4,59.6 66.5,56.6 65.7,54.1 69.8,54.8  "></polygon></g></svg>